<svg width="35" height="35" viewBox="0 0 35 35" fill="none" xmlns="http://www.w3.org/2000/svg">
<path d="M7.65625 2.1875C4.64847 2.1875 2.1875 4.64847 2.1875 7.65625V25.1562C2.1875 28.164 4.64847 30.625 7.65625 30.625H25.1562C28.164 30.625 30.625 28.164 30.625 25.1562V7.65625C30.625 4.64847 28.164 2.1875 25.1562 2.1875H7.65625ZM7.65625 4.375H25.1562C26.9828 4.375 28.4375 5.82965 28.4375 7.65625V25.1562C28.4375 26.9828 26.9828 28.4375 25.1562 28.4375H21.6656V19.6149H24.7205L25.1776 16.0944H21.6656V13.8513C21.6656 12.8319 21.9494 12.1381 23.4216 12.1381H25.3015V8.98926C24.9756 8.94551 23.8601 8.85254 22.5629 8.85254C19.8547 8.85254 18.0042 10.491 18.0042 13.501V16.0944L15.3125 16.0858V19.6063L18.0042 19.6149V28.4375H7.65625C5.82965 28.4375 4.375 26.9828 4.375 25.1562V7.65625C4.375 5.82965 5.82965 4.375 7.65625 4.375Z" fill="#3A3A3A"/>
</svg>
