<?xml version="1.0" encoding="UTF-8"?>
<svg width="24px" height="24px" viewBox="0 0 24 24" version="1.1" xmlns="http://www.w3.org/2000/svg" xmlns:xlink="http://www.w3.org/1999/xlink">
    <!-- Generator: Sketch 59.1 (86144) - https://sketch.com -->
    <title>icons8-confused</title>
    <desc>Created with Sketch.</desc>
    <g id="Page-1" stroke="none" stroke-width="1" fill="none" fill-rule="evenodd">
        <g id="Artboard" transform="translate(-88.000000, -364.000000)" fill="#3A3A3A" fill-rule="nonzero">
            <g id="Group" transform="translate(88.000000, 364.000000)">
                <g id="icons8-confused">
                    <path d="M12,0 C5.3844276,0 0,5.3844276 0,12 C0,18.615572 5.3844276,24 12,24 C18.615572,24 24,18.615572 24,12 C24,5.3844276 18.615572,0 12,0 Z M12,2 C17.534692,2 22,6.4653079 22,12 C22,17.534692 17.534692,22 12,22 C6.4653079,22 2,17.534692 2,12 C2,6.4653079 6.4653079,2 12,2 Z M7.5,8 C6.67157288,8 6,8.8954305 6,10 C6,11.1045695 6.67157288,12 7.5,12 C8.32842712,12 9,11.1045695 9,10 C9,8.8954305 8.32842712,8 7.5,8 Z M16.5,8 C15.6715729,8 15,8.8954305 15,10 C15,11.1045695 15.6715729,12 16.5,12 C17.3284271,12 18,11.1045695 18,10 C18,8.8954305 17.3284271,8 16.5,8 Z M15.955078,13.988281 C15.5899985,14.0070157 15.2642278,14.2234474 15.105469,14.552734 C14.689642,15.384388 14.357449,15.58706 14.005859,15.693359 C13.65427,15.799659 13.154033,15.759729 12.521484,15.662109 C11.888936,15.564489 11.135067,15.399479 10.277344,15.603516 C9.41962,15.807549 8.59198,16.492952 8.091797,17.582031 C7.93135186,17.9081726 7.96048398,18.2956871 8.16788677,18.594175 C8.37528957,18.892663 8.72830741,19.0551272 9.08992927,19.0185132 C9.45155114,18.9818992 9.76483954,18.7519718 9.908203,18.417969 C10.23402,17.708548 10.443083,17.619514 10.740234,17.548828 C11.037386,17.478138 11.555846,17.536672 12.216797,17.638672 C12.877748,17.740676 13.693699,17.876591 14.583984,17.607422 C15.47427,17.338253 16.310358,16.615612 16.894531,15.447266 C17.0594539,15.1290692 17.0415006,14.7469474 16.8474703,14.4456154 C16.65344,14.1442833 16.3129994,13.9698139 15.955078,13.988281 Z" id="Shape"></path>
                </g>
            </g>
        </g>
    </g>
</svg>