<svg width="35" height="35" viewBox="0 0 35 35" fill="none" xmlns="http://www.w3.org/2000/svg">
<path d="M6.03272 2.1875C3.92212 2.1875 2.1875 3.92212 2.1875 6.03272V26.7883C2.1875 28.8904 3.92212 30.625 6.03272 30.625H26.7883C28.8904 30.625 30.625 28.8904 30.625 26.7883V6.03272C30.625 3.92212 28.8904 2.1875 26.7883 2.1875H6.03272ZM6.03272 4.375H26.7883C27.7112 4.375 28.4375 5.10132 28.4375 6.03272V26.7883C28.4375 27.7112 27.7112 28.4375 26.7883 28.4375H6.03272C5.10132 28.4375 4.375 27.7112 4.375 26.7883V6.03272C4.375 5.10132 5.10132 4.375 6.03272 4.375ZM8.75 6.5625C7.54517 6.5625 6.5625 7.54517 6.5625 8.75C6.5625 9.95483 7.54517 10.9375 8.75 10.9375C9.95483 10.9375 10.9375 9.95483 10.9375 8.75C10.9375 7.54517 9.95483 6.5625 8.75 6.5625ZM6.5625 13.125V26.25H10.9375V13.125H6.5625ZM13.125 13.125V26.25H17.5V20.3882C17.5 18.5681 17.6709 16.936 19.8584 16.936C22.0117 16.936 21.875 18.8928 21.875 20.5078V26.25H26.25V19.773C26.25 16.0132 25.4639 13.125 21.2 13.125C19.1492 13.125 18.1152 13.9453 17.5513 15.0391H17.5V13.125H13.125Z" fill="#3A3A3A"/>
</svg>
