<svg width="50" height="50" viewBox="0 0 50 50" fill="none" xmlns="http://www.w3.org/2000/svg">
<circle cx="25" cy="25" r="25" fill="#3A3A3A"/>
<path fill-rule="evenodd" clip-rule="evenodd" d="M12.3309 29.6557C13.6137 30.8922 15.4361 31.5104 17.7982 31.5104C18.3019 31.5104 18.784 31.4811 19.2446 31.4224C18.5202 36.2385 22.2514 40.6251 27.1763 40.6251C30.8555 40.6251 33.7657 39.5003 35.9067 37.2506C38.0686 34.939 39.1495 31.8328 39.1495 27.932C39.1495 24.9394 38.2972 22.6175 36.5927 20.9664C34.8882 19.3152 32.6016 18.4897 29.7331 18.4897H26.9753L27.7323 14.5634C28.2511 11.8724 26.1893 9.375 23.4487 9.375L20.4554 24.6995C20.15 26.3009 19.3253 27.1016 17.9814 27.1016C16.271 27.1016 15.599 26.1793 15.9656 24.3347C16.1393 23.4698 15.4779 22.6623 14.5958 22.6623H12.9362C12.0675 22.6623 11.3177 23.2715 11.1397 24.1218C10.651 26.5745 11.0481 28.4192 12.3309 29.6557ZM27.1763 36.0432H23.7776L26.3032 23.0406H28.8912C30.4294 23.0406 31.5935 23.4843 32.3834 24.3718C33.1941 25.2386 33.5994 26.5183 33.5994 28.2107C33.5994 30.6048 33.0382 32.5139 31.9157 33.938C30.7932 35.3415 29.2134 36.0432 27.1763 36.0432Z" fill="white"/>
</svg>
