<svg id="圖層_1" data-name="圖層 1" xmlns="http://www.w3.org/2000/svg" viewBox="0 0 327.63 235.31"><title>Square</title><path d="M139.9,461.72a26.3,26.3,0,0,1,3.51-.44c5.79,0,11.58,0,17.38.15,1,0,1.59-.18,1.88-1.26a21.8,21.8,0,0,1,1.43-3.67c4.75-9.69,7.49-20.11,11.13-30.21,2.9-8.05,5.87-16.09,11.15-23,4.38-5.73,9.1-11.17,14.9-15.54,1.59-1.2,3.36-2.15,5-3.28,1.9-1.31,3.79-2.64,5.61-4.06a2.44,2.44,0,0,0,.75-1.61c.34-5,.61-10,.88-15.07.22-4,1.8-7.06,5.46-8.92a42.54,42.54,0,0,1,14.75-4.71c6.51-.69,13-1.24,19.55-1.83,1.18-.1,2.37-.12,3.86-.19a23,23,0,0,1-5-9.2c-.78-3-1.54-5.94-2.32-8.91-.3-1.11-.63-2.21-.94-3.29-4.32.38-6.7-.94-8.47-4.83a18.19,18.19,0,0,1-1.65-11.74,6.88,6.88,0,0,1,6.7-5.57l3.79-.18c-.86-3.9-1.87-7.62-2.47-11.42a45.31,45.31,0,0,1,2.06-23c.89-2.41,2.17-4.67,3.38-7.23-4.48-4.25-6.53-9.66-4.82-16.38a5.82,5.82,0,0,1,.71.83c1.63,2.81,3.79,5,7.11,5.57a18.57,18.57,0,0,0,4.58-.09c-2.15-1.76-4.23-3.51-5.54-6s-1.38-5.18-1.36-7.9l.36-.4a4.54,4.54,0,0,0,.8,1.34c2.88,2.35,6,3.74,9.75,2.09,5.26-2.3,10.52-4.61,15.84-6.76a44.46,44.46,0,0,1,12.79-3.39,24.33,24.33,0,0,1,10.38,1.25c4,1.4,7.93,3,12,4.26,3.22,1,6.54,1.77,9.79,2.71,4.6,1.33,6.72,4.69,7.42,9.35a11.57,11.57,0,0,1,6.51-3.84,24.6,24.6,0,0,1,3.09-.38c.28,0,.58.25.87.39-.22.28-.37.7-.65.83-1.09.5-2.25.83-3.32,1.35s-2.11,1.22-3.37,2c1.62,0,2.9,0,4.17,0a7.53,7.53,0,0,1,1.9.21,3.78,3.78,0,0,1,1,.73c-.28.29-.51.75-.85.85a10.33,10.33,0,0,0-4.58,2.71,8.48,8.48,0,0,0-1.5,2c-.15.28,0,.83.21,1.19a51.29,51.29,0,0,1,4.65,13.8,55.38,55.38,0,0,1,.26,14.94,62.18,62.18,0,0,1-1.44,8.84c-.8,3-2.1,5.91-3.25,9.05.5-.06,1.2.05,1.6-.24,3.72-2.65,8.9.2,9.66,4.45,1.11,6.23-2.92,14.17-8.68,16.47-.33.13-.7.4-1,.34-1.42-.26-1.8.79-2.13,1.73-.89,2.51-1.62,5.09-2.53,7.59-1.73,4.76-3.9,9.28-7.61,12.87a3.94,3.94,0,0,0-.34.51c2.39-.16,4.6-.28,6.8-.44,6.13-.46,12.26-1,18.4-1.37,3.07-.19,6.15-.29,9.23-.22a20.1,20.1,0,0,1,9.94,3.18c3.46,2.1,4.57,5.55,4.84,9.39q.69,10.11,1.52,20.2a4.14,4.14,0,0,0,1,2c2.77,3.48,6.33,6.08,9.8,8.79a238,238,0,0,0,23,15.36c7.29,4.44,14,9.65,19.2,16.45A50.14,50.14,0,0,1,438.61,443a19.34,19.34,0,0,1-.85,10.48,22.2,22.2,0,0,1-2.11,3.47c5.06,1.67,10.1,4,15.61,4.84s10.83,1.88,16.24,2.83l0,.46a10.09,10.09,0,0,1-1.18.28c-5.92.62-11.69-.48-17.48-1.54-4.59-.83-8.73-2.84-12.93-4.68a5.27,5.27,0,0,0-4.94,0c-4.8,2.41-9.83,2.45-15.07,1.43-10-1.94-20.06-3.58-30.11-5.31a35.9,35.9,0,0,0-5.47-.6,22.63,22.63,0,0,0-3.49.62,13.2,13.2,0,0,1-1.89,0c-2,4.93-6.51,6.69-11.32,7.64-5.64,1.11-11.35,1.85-17.05,2.67a159,159,0,0,1-32.56.93c-12.89-.78-25.8-1.28-38.71-1.11-9.6.12-19.19.46-28.79.63a139.33,139.33,0,0,1-25.31-1.85,9.28,9.28,0,0,1-6.49-4.17,9.6,9.6,0,0,1-7,1.46,110.42,110.42,0,0,0-26.2.45c-5.83.74-11.68,1.31-17.54,1.66a80.73,80.73,0,0,1-9.69-.42c-4.59-.27-9.17-.6-13.76-.91-.21,0-.43-.06-.64-.09Zm73.5-36c0,3.48-.06,7,0,10.43s.24,6.95.44,10.42c.16,2.7.32,5.42.71,8.09a8.74,8.74,0,0,0,7.6,7.53c1.38.21,2.79.31,4.15.62,6.87,1.6,13.88,1.68,20.85,1.72,10.68.05,21.35-.33,32-.39,7.44,0,14.88.09,22.31.24,4.4.09,8.79.37,13.18.53a164.59,164.59,0,0,0,25.51-.69c5.55-.66,11.1-1.45,16.61-2.36a75,75,0,0,0,10.86-2.38c4.58-1.49,7.6-4.7,6.81-10.55a7.75,7.75,0,0,1,0-.84c-.11-10.35-.26-20.71-.32-31.06-.06-9.36,0-18.72-.05-28.07,0-3.72-.32-7.43-.52-11.14-.35-6.42-.67-12.83-1.09-19.25a10.08,10.08,0,0,0-2.89-6.76,14.78,14.78,0,0,0-9.31-4,101.26,101.26,0,0,0-12.8.06c-7.11.33-14.2.94-21.3,1.26-8.06.37-16.14.42-24.2.85a148,148,0,0,1-23-.35,91.56,91.56,0,0,0-18.05-.47c-7.83.75-15.65,1.62-23.46,2.48a51.45,51.45,0,0,0-15.55,4.24,27.23,27.23,0,0,0-4.25,2.45,4.26,4.26,0,0,0-2.11,3.32c-.43,7-.94,14.1-1.27,21.17q-.57,12.51-.86,25C213.3,413.82,213.4,419.78,213.4,425.74Zm162.3,28.19a29.27,29.27,0,0,1,4.85-1.06,29.6,29.6,0,0,1,6.45.3c8.36,1.37,16.69,2.87,25,4.35,3.11.55,6.18,1.45,9.3,1.69,4.74.37,9-1.45,13-3.83a5.06,5.06,0,0,0,1.88-2.25,16.33,16.33,0,0,0,1.21-9.13,46.93,46.93,0,0,0-10.74-22.91A66.56,66.56,0,0,0,409.3,406.7c-8.32-5-16.69-9.92-24.32-16-3.22-2.56-6.53-5-9.06-8.34,0,0-.14,0,.07,0v48.09l.38,0c.21-.28.43-.56.64-.85s.47-.64.73-.94a30.94,30.94,0,0,1,17.91-10.37c2.81-.55,5.69-.73,8.55-1,.36,0,.77.35,1.16.54a4.36,4.36,0,0,1-.87,1.1,6.11,6.11,0,0,1-1.45.54c-5.17,1.83-10.35,3.66-15.52,5.53a24.14,24.14,0,0,0-2.47,1.17,18.56,18.56,0,0,0,3.7-.6,72.33,72.33,0,0,1,15.34-2.35,14.36,14.36,0,0,1,2.86.12c.5.09,1.21.54,1.3.95s-.39,1.06-.79,1.38a4.18,4.18,0,0,1-1.74.75c-4,.75-7.9,1.52-11.88,2.15-4.25.67-8.55,1.07-12.54,2.89-1.53.71-3.07,1.38-4.77,2.14l.44-1-.34-.1a7.86,7.86,0,0,0-.47,1.85c-.07,3.52,0,7-.1,10.55C376,447.85,375.83,450.8,375.7,453.93ZM250.32,304.41c1.65,0,3.5-.07,5.35,0a14,14,0,0,0,5.14-.65c3.21-1,6.58-1.12,9.93-1.26,4.24-.19,8.45-.45,12.61.79,2.15.63,4.27,1.13,5.14,3.31,1.63-.24,3.11-.57,4.61-.64a2.32,2.32,0,0,1,1.82.84c.48.91,1.12.81,1.85.82.31-3.24,1-3.95,4.22-4.78a.85.85,0,0,1,.23,0c4.45-.4,8.9-1.06,13.36-1.13,4.72-.08,9.46.32,14.18.65a46.28,46.28,0,0,1,5.23,1c.44-1,.8-2.14,1.34-3.14a10.55,10.55,0,0,0,1.14-5.43c-.05-3.32,0-6.64,0-10a60.56,60.56,0,0,0-3.83-21.35c-.3-.78-.64-1.55-.9-2.2.95,6.25,1.89,12.59,2.9,18.92a66.32,66.32,0,0,1,.1,17.69,16.24,16.24,0,0,1-.9,3.45,1.25,1.25,0,0,1-.93.67c-.23,0-.53-.49-.71-.81a1.78,1.78,0,0,1-.09-.7c-.29-4.63-.54-9.26-.9-13.88a44.88,44.88,0,0,0-5.56-19c-.15-.27-.35-.52-.72-1a35.91,35.91,0,0,1,.84,4.58,33.75,33.75,0,0,1-.26,5.22c0,.34-.59.62-.91.92a4.5,4.5,0,0,1-.57-1.11,7.32,7.32,0,0,1,.08-1.31,13.61,13.61,0,0,0-.08-3.56c-1.15-4.28-2.47-8.52-3.71-12.73a3.51,3.51,0,0,0-.55.09,15.23,15.23,0,0,0-5.35,3.35c-2.82,2.7-6.48,4.15-10,5.72-2.68,1.18-5.17,2.77-7.77,4.13-.87.45-1.81.77-2.72,1.15l-.28-.43c5.06-2.8,8.27-7.57,12.5-11.4a10.52,10.52,0,0,0-7.07,2.34,59.31,59.31,0,0,0-5.2,4.43,22.85,22.85,0,0,1-13.71,6.36,3.26,3.26,0,0,1-2.74-.76,11.29,11.29,0,0,0,6.46-3.62c1.74-1.76,3.37-3.64,5.05-5.46a5.52,5.52,0,0,0-1.64.5c-3.88,1.58-7.7,3.32-11.66,4.67-3,1-6.15,2-9.39,1.42-1.75-.31-2.72.27-3.92,1.5a35.83,35.83,0,0,0-9,15.44c-.89,3.06-1.58,6.18-2.45,9.25a7.68,7.68,0,0,1-1.12,1.78l-.33-.14C249.65,300.64,250,302.47,250.32,304.41Zm85.95,2.18c-1.75,0-3.42.1-5.08,0-1.87-.13-1.89-.22-2.14,1.57a28,28,0,0,1-5.21,13.11,5,5,0,0,1-3.3,2.11c-5.44,1-10.91.55-16.36.35A5.33,5.33,0,0,1,300,321.3c-2.38-3.28-3.83-6.82-3.52-10.94.07-1-.27-1.43-1.29-1.29-2.29.31-4.57.64-6.87.89A1.3,1.3,0,0,0,287,311.1c-.62,2.23-1.3,4.44-1.92,6.67a12.16,12.16,0,0,0-.48,2.31c-.23,2.49-.51,4.92-2.55,6.73a2.42,2.42,0,0,0-.68,1.22,1.46,1.46,0,0,0,.21,1.18,1.65,1.65,0,0,0,1.2.16,12.43,12.43,0,0,0,1.22-.49,4.58,4.58,0,0,1,3.83.1c1.13.68.72,1.82.87,2.81a1.36,1.36,0,0,0,.7.93,3.57,3.57,0,0,0,5-2.35,3.41,3.41,0,0,1,4.66-2.09,1.56,1.56,0,0,0,1.35-.11c.51-.38,1.15-.83.72-1.75a6.68,6.68,0,0,0-4.39-3.9c-.22-.07-.4-.31-.6-.46.23-.16.49-.49.69-.46a12.64,12.64,0,0,1,3.53.81c1.3.66,2.14,3.49,1.75,4.87-.5,1.77-1.94,3.15-3.21,2.86a2.67,2.67,0,0,0-3.14,1.55,2.62,2.62,0,0,1-2.22,1.4c-1.23.08-2.45.2-3.68.23a2.12,2.12,0,0,1-2.19-1.34,1.83,1.83,0,0,0-2.46-1.07c-.42.11-.84.27-1.27.36a2.77,2.77,0,0,1-3.38-3.16,5.31,5.31,0,0,1,1.32-2.32,7.14,7.14,0,0,0,1.74-4.56,13,13,0,0,1-7.2,3.67,38.19,38.19,0,0,1-8,.06,35.2,35.2,0,0,1-6.67-1.26,5.87,5.87,0,0,1-4.27-5,40.29,40.29,0,0,1-.49-4.52c-.16-2.28-.25-4.57-.36-6.87a14.31,14.31,0,0,1-7.12.07,35.84,35.84,0,0,0-4.34-.87A4.6,4.6,0,0,0,240,310a14.12,14.12,0,0,0,.61,9.14c1,3,2.79,5.28,6.1,6a11.44,11.44,0,0,1,1.35.48,1.79,1.79,0,0,0-.54-1.24c-.82-.81-1.77-1.51-2.53-2.37a11.11,11.11,0,0,1-2.51-8,14.57,14.57,0,0,1,1.27-5,3.31,3.31,0,0,1,4.32-1.4c1.16.82,1.06,2.61-.19,4.14a5.31,5.31,0,0,0-1.09,1.69,3.09,3.09,0,0,0,0,2,5.37,5.37,0,0,0,1.62,1.84c2.08,1.61,2.23,3.78,2.07,6.16a19.42,19.42,0,0,0,.27,4c.14,1,.5,2,.73,3,1.35,5.88,2.62,11.78,6.34,16.77a1.45,1.45,0,0,0,1.4.78,136.71,136.71,0,0,1,19.62.53,131.63,131.63,0,0,0,19.15.24c8.06-.4,16.13-.72,24.19-1a2.26,2.26,0,0,0,1.83-.87,42.26,42.26,0,0,0,7.72-14.74c.9-3,2-5.87,3.19-8.74a10.28,10.28,0,0,0,.7-4.18c0-2.09,0-4.23,1.65-5.94,1.28-1.34,1.27-1.48.15-3A4.41,4.41,0,0,1,336.27,306.59Zm-123.65,75a61.59,61.59,0,0,1-5.49,4.78A77.75,77.75,0,0,0,193.69,398c-5.12,5.59-9.58,11.61-12.38,18.7s-5.36,14.19-8,21.29c-2.37,6.31-4.16,12.84-7.4,18.81a41.11,41.11,0,0,0-1.79,4.37,23.94,23.94,0,0,0,2.41,0q9.06-1,18.12-2a89.47,89.47,0,0,1,18.07-.44l7.24.66a100.47,100.47,0,0,0-4.53-15.07c-1.28-3.12-2.43-6.32-3.42-9.55a12.93,12.93,0,0,1-.39-4.6c.09-1.42,1.37-1.76,2.42-.77a4,4,0,0,1,.87,1.13,33.83,33.83,0,0,1,2.43,5.18c1.26,4.24,2.28,8.55,3.4,12.84q.69,2.63,1.39,5.24a3.36,3.36,0,0,0,.18-1.91c-.95-4.69-1.95-9.37-2.93-14.06-.82-3.9-1.65-7.8-2.42-11.71-.18-.9-.21-2,.86-2.37s1.79.48,2.2,1.37a34,34,0,0,1,1.19,3.24c.29.86.51,1.75.76,2.62l-.15,0C212.07,414.45,212.35,397.91,212.62,381.54Zm86.23-71.8a16.31,16.31,0,0,0,2.63,10.13A3.82,3.82,0,0,0,305,322c4.29,0,8.59.51,12.88-.42,2.28-.5,4.33-1.14,5.54-3.29a14.36,14.36,0,0,0,1.27-2.69c.92-3,1.78-6,2.62-8.95.32-1.17,0-1.83-1.22-2a43.64,43.64,0,0,0-7-.8c-4.55,0-9.1.3-13.64.58a21.87,21.87,0,0,0-4.47.75c-2.06.55-2.1.72-2.11,2.8Zm-50.36-59.32c2,8.27,11.31,13.89,19.93,11.94,4.66-1.05,9.22-2.57,13.79-4a56.75,56.75,0,0,1,23.41-2.4,80.1,80.1,0,0,0,9.67.49,12.09,12.09,0,0,0,9.36-4.71,50.92,50.92,0,0,1-7,1.83c-3.68.44-7.41.5-11.12.6a42.87,42.87,0,0,1-15.83-2.08,29.91,29.91,0,0,0-16.41-1c-3.9.81-7.73,2-11.61,2.9C257.36,255.22,252.27,255.46,248.49,250.42Zm27.05,54.3-12.46.73c-2.95.16-3.44,1.57-3.66,4.13a10.44,10.44,0,0,0,.08,1.67c.16,2.07.39,4.13.48,6.21.14,3,.71,4,3.55,4.79a51.09,51.09,0,0,0,6.56,1.14c3.63.52,7.12.31,10.38-1.73a4.7,4.7,0,0,0,2.17-2.42c1.27-3.68,2.51-7.39,3.63-11.12.45-1.47.17-1.88-1.39-2.12C281.38,305.45,277.86,305,275.54,304.72ZM250.37,258.1a1.33,1.33,0,0,0,.11.3,36,36,0,0,0,9.31,8.56,14.93,14.93,0,0,0,10.71,1.92,61.76,61.76,0,0,0,14.26-4.81,42.66,42.66,0,0,1,17.88-4.28c4.74,0,9.51,0,14.16-1.13a14.21,14.21,0,0,0,3.06-1.55l-.15-.35c-4.37,1.4-8.83,1.22-13.28.67a48,48,0,0,0-17.95,1c-4.9,1.25-9.65,3-14.52,4.43a36.19,36.19,0,0,1-8.29,1.72A18.64,18.64,0,0,1,250.37,258.1ZM318.66,252l0-.28c-.47,0-.95.06-1.42.12a14.7,14.7,0,0,1-6.84-.46c-3.65-1.29-7.3-2.6-11-3.64a50.19,50.19,0,0,0-23.81-.43c-3.2.64-6.37,1.5-9.68,1.31-4.46-.25-8.25-1.74-10.72-5.72a6.05,6.05,0,0,0-.61-.73,3.37,3.37,0,0,0,.14,1.61c1.19,3.53,3.71,6,6.58,8.18a2.09,2.09,0,0,0,1.55.12c2.33-.57,4.63-1.24,6.95-1.81,7.27-1.81,14.46-2.14,21.7.38a35.2,35.2,0,0,0,9,1.76c4.53.34,9.1.28,13.65.25A29.91,29.91,0,0,0,318.66,252Zm-57.55-8.06a32.77,32.77,0,0,0,6-.07c3.36-.63,6.65-1.65,9.95-2.56,4.55-1.26,9.1-2.66,13.87-2.26a41.35,41.35,0,0,1,16.6,5.05c5.74,3.19,11.94,4.59,18.33,5.45.15,0,.33-.11.59-.2a15,15,0,0,0-4.82-4,35.68,35.68,0,0,0-9.12-2.73c-5.68-1.16-11.43-2.16-16.71-4.76a20.09,20.09,0,0,0-13.54-1.31,58.19,58.19,0,0,0-11.93,4.09A39.67,39.67,0,0,1,261.11,243.93Zm59.32,6.33a32.09,32.09,0,0,1-9.94-3c-4.61-2.3-9.21-4.64-14.3-5.67a32.72,32.72,0,0,0-7.79-.88c-5,.22-9.76,1.95-14.5,3.5a27.28,27.28,0,0,1-10.47,1.61c-1.37-.1-2.73-.31-4.35-.49a13.21,13.21,0,0,0,6.84,2.1c3.31.22,6.48-.65,9.67-1.33a49.9,49.9,0,0,1,23.34.15c4.3,1.14,8.47,2.76,12.7,4.16C314.57,251.36,317.49,250.86,320.43,250.26Zm13,43.69h.24c.06-.74.14-1.48.18-2.22a76.24,76.24,0,0,0-1-15.39c-.93-6.26-2.06-12.5-3-18.75-.08-.45.23-1,.35-1.43.37.31.86.54,1.08.93a51.86,51.86,0,0,1,6,16.31c1,5.53,1,11.13,1,16.73v1.28h.34c.22-3.18.51-6.35.67-9.53a40.86,40.86,0,0,0-2.11-16.06c-1.63-4.52-3.71-8.88-5.61-13.31a.73.73,0,0,0-.37-.32c-1.19-.52-2.39-1-3.66-1.56a9.48,9.48,0,0,1-1.2,1.08,2.8,2.8,0,0,0-1.31,3.58c1.34,3.79,2.47,7.67,4.11,11.33a45.3,45.3,0,0,1,4.13,21.75A49.65,49.65,0,0,0,333.39,294Zm-2.56-42.74c-.28-5.66-2.89-9.32-8.47-10.43a114.71,114.71,0,0,1-19.4-6,23.09,23.09,0,0,0-12.37-1.22c-1.43.24-2.84.59-4.26.89a1.62,1.62,0,0,0,1.08.27,17.8,17.8,0,0,1,8.47,1.75c5.69,2.8,11.87,3.82,18,5,5.56,1,10.64,2.8,14.32,7.43A21.37,21.37,0,0,0,330.83,251.21Zm-80.2,39,.35.11c2-7.72,5.17-14.76,11.69-20-4-1.24-6.75-3.78-9.46-6.45-4.22,5.72-7.45,23.51-5.33,27.54.46-3,.77-6.46,1.52-9.78,1-4.43,2.41-8.76,5.35-12.38.44-.54,1.37-1.4,1.58-1.28,1,.6.23,1.5,0,2.22-1.29,4-2.74,8-3.94,12C251.62,284.87,251.21,287.58,250.63,290.25Zm86.68,31.32c2.84-2.59,5.25-5.21,5.85-9,.48-3-.44-4.52-3.19-5.83-.65-.31-1.33-.58-2-.87a2.14,2.14,0,0,0,.26,2.57,17,17,0,0,1,1.13,1.55c1.14,1.86,1,2.76-.79,4A3.39,3.39,0,0,0,337,317.2C337.07,318.58,337.19,320,337.31,321.57Zm-55-48.55c.86-.27,1.73-.52,2.59-.82a23.16,23.16,0,0,0,8.18-5c2.17-2,4.5-3.92,6.91-6-2.06.37-4,.74-5.89,1.07a7.36,7.36,0,0,0-4.78,3.06C287.2,268.12,285.2,271,282.27,273Zm-33.78,51.79.38,0c0-1,0-2,0-2.94a3.08,3.08,0,0,0-.08-1.3,7.58,7.58,0,0,0-1.72-2.75,4.24,4.24,0,0,1-.71-6.3,9.81,9.81,0,0,0,1.26-1.58,1.82,1.82,0,0,0-.05-1.43,1.17,1.17,0,0,0-1.13-.27c-.69.33-1.57.73-1.85,1.34a12.15,12.15,0,0,0-1,3.76C243.12,318,246.1,321.3,248.49,324.81Zm158,100.1-.05-.36a7.32,7.32,0,0,0-1.6-.17c-3.32.39-6.67.7-10,1.29-3.52.64-7,1.58-10.5,2.36-.94.21-1.91.33-2.53-1l-4.68,5,.24.26a21,21,0,0,1,8.09-3.62c5.09-.91,10.23-1.59,15.34-2.43C402.72,425.87,404.59,425.34,406.47,424.91Zm-92-164.72c-2.39.76-5.21,0-7.3,1.71s-3.64,3.54-5.45,5.33l.24.24C307.29,265.37,312.24,262.54,314.48,260.19ZM337.27,324l-.37-.27a3.48,3.48,0,0,0,.44-.1c3.3-1.18,5.18-3.82,7-6.62,2-3.15,1.73-6.4.49-9.64a4.19,4.19,0,0,0-5.44-2.17c.34.11.59.2.85.26a5.49,5.49,0,0,1,4.43,5.15,10.84,10.84,0,0,1-2.57,7.89C340.58,320.41,338.88,322.16,337.27,324ZM209,448.59c-1.58-6.18-2.34-12.63-6-18.12C203,437.2,206.88,442.59,209,448.59ZM323.52,255.26c-1,1-1.8,1.9-2.62,2.75l7,10.79C326.3,264.39,324.06,260.2,323.52,255.26ZM212.17,443.71a50.64,50.64,0,0,0-3.47-18.5l-.59.13Q210.14,434.52,212.17,443.71Zm37.25-154.24c.81-6.2,3-12,5-17.86A37.79,37.79,0,0,0,249.42,289.47ZM338,250.8c-1.22.28-2.31.47-3.36.8s-1.66.13-2-.95c-.24,1.78,1.09,2.9,1.63,4.16ZM211.62,459.63c.58-.33,1.21-.48,1.37-.84a1.84,1.84,0,0,0-.31-1.37c-.34-.58-.94-1-1.26-1.6a24.86,24.86,0,0,1-1-2.56l-.21.06Zm185.86-39.72a27.54,27.54,0,0,0-10.63,3.77c3.34-1.13,6.66-2.32,10-3.5Z" transform="translate(-139.9 -231.57)"/><path d="M290.44,420.31c-2.58-.05-4.71-1.32-7-2.31-3.58-1.55-5.87-8.06-4.89-11.45a9,9,0,0,1,9.91-6.68,7.32,7.32,0,0,1,3.25,1.61c2.89,2.29,2.81,2.29,6,.35a9.82,9.82,0,0,1,3.39-1.28c1.29-.22,2.1.71,2,2.05a19.39,19.39,0,0,1-.47,2.34c-.17.85,0,1.4,1.06,1.38a6.16,6.16,0,0,1,1.65.25c1.24.34,1.83,1.68,1.49,3.24-1.17,5.26-5.25,8.93-11.07,9.88C294,420,292.22,420.11,290.44,420.31Zm-.78-1.69c2.81-.36,5-.5,7.15-.94a10.92,10.92,0,0,0,8.8-8c.44-1.44,0-2-1.5-2.11-2.71-.14-3.27-.89-2.66-3.57a3.46,3.46,0,0,0,.19-.68c0-.5.15-1.22-.1-1.42a1.73,1.73,0,0,0-1.46,0,26.68,26.68,0,0,0-2.89,1.66c-2.16,1.36-3.41,1.34-5.46-.13-.29-.21-.58-.43-.85-.66a6.27,6.27,0,0,0-7.37-.34c-4.42,2.63-5,10-1.08,13.4a.62.62,0,0,0,.19.14Z" transform="translate(-139.9 -231.57)"/><path d="M298.8,391.57a3.72,3.72,0,0,1-1.49,3.38,46.87,46.87,0,0,1-5.76,3.3c-1.13.54-1.84-.23-1.54-1.48a18.41,18.41,0,0,1,3.31-6.71,5.49,5.49,0,0,1,.57-.61c.95-.88,2-1.61,3.33-1S298.75,390.29,298.8,391.57Zm-8.15,5.85.5.46c1.7-1.35,3.43-2.67,5.08-4.07a2.19,2.19,0,0,0,.78-1.42,10.59,10.59,0,0,0-.47-2.33c-.6.33-1.4.52-1.75,1C293.33,393.15,292,395.3,290.65,397.42Z" transform="translate(-139.9 -231.57)"/><path d="M325.76,298.58c-.55-.25-1.12-.46-1.65-.73-4.23-2.15-8.57-1.61-13-.63a37.35,37.35,0,0,1-5,.62,4.07,4.07,0,0,1-1.75-.33,1.21,1.21,0,0,1-.58-.91,1.18,1.18,0,0,1,.58-.9,10.43,10.43,0,0,1,1.86-.4c2.39-.49,4.75-1.08,7.15-1.44a14.07,14.07,0,0,1,10.21,2,16.92,16.92,0,0,1,2.4,2.32Z" transform="translate(-139.9 -231.57)"/><path d="M258,300.16a5.94,5.94,0,0,1,.47-.72,9.61,9.61,0,0,1,8.12-3.28c3,.24,6.06.2,9.09.31a5.29,5.29,0,0,1,1.88.25,1.45,1.45,0,0,1,.83,1.08,1.34,1.34,0,0,1-1,.95c-2.7.13-5.41.24-8.11.15-1.71,0-3.42-.7-5.1-.6a18.7,18.7,0,0,0-4.51,1.32,9.26,9.26,0,0,0-1.46.77Z" transform="translate(-139.9 -231.57)"/><path d="M300.61,341.41c-1.59,1.28-3.35,1.51-5.08,1.89a22,22,0,0,1-11.57-.39,16.37,16.37,0,0,1-3.3-1.64,1.39,1.39,0,0,1-.67-2c.53-.86,1.34-.69,2.1-.26a11.82,11.82,0,0,1,1.22.76,14.73,14.73,0,0,0,11.13,2.52C296.42,342,298.41,341.71,300.61,341.41Z" transform="translate(-139.9 -231.57)"/><path d="M306.14,310.16c2.22,1.4,4.66,1.47,7,1.46a56.3,56.3,0,0,0,6.94-.8l.25.29c-.87.91-1.75,1.82-2.63,2.72l-.31-.27.88-1.22-4.16.92a1.73,1.73,0,0,1-.77,2.43,2.38,2.38,0,0,1-2.69-.37,1.57,1.57,0,0,1-.24-2.3l-3.31-1-.21.28,2.8,2.24A3.12,3.12,0,0,1,307,313.4C306.25,312.55,305.51,311.65,306.14,310.16Z" transform="translate(-139.9 -231.57)"/><path d="M319.35,309.28a13,13,0,0,1-2,.6c-2.68.41-5.37.83-8.06.15a5.74,5.74,0,0,1-2-1c-.25-.19-.17-.82-.24-1.24.32.08.64.19,1,.25a27,27,0,0,0,3.83.74c1.94.12,3.9,0,5.85,0h1.52Z" transform="translate(-139.9 -231.57)"/><path d="M267.83,313.27l-2.14-.79.41,1.07-.36.23c-.58-.84-1.19-1.65-1.71-2.52a1.06,1.06,0,0,1,.22-.81c.4,0,1,0,1.18.24,2,2.35,4.58,1.57,7,1.39a26.66,26.66,0,0,0,3-.65,6.57,6.57,0,0,1,1.31.06c-.94.91-1.35,1.72-2.65,1.42a6,6,0,0,0-2.43.4c-.3.89-.32,1.84-.8,2.23a2,2,0,0,1-2.78-.45c-.38-.39-.4-1.14-.58-1.72Z" transform="translate(-139.9 -231.57)"/><path d="M277.29,309.82a6.71,6.71,0,0,1-1.9.9,46.53,46.53,0,0,1-7.25.46c-1.19-.05-2.36-1-3.47-1.61-.23-.13-.14-.82-.2-1.25a9,9,0,0,1,1.16.18,22,22,0,0,0,3.64,1,42.34,42.34,0,0,0,4.9-.14c1,0,2,0,2.95,0Z" transform="translate(-139.9 -231.57)"/></svg>